<svg xmlns="http://www.w3.org/2000/svg" width="768" height="897.1490914503896" viewBox="0 0 410.0250244140625 478.97601318359375" version="1.1">
<g transform="translate(-186,-160.1820068359375)"><path d="M 364.439 185.841 C 360.005 188.953, 322.543 215.290, 281.189 244.368 L 206 297.235 206.043 399.368 L 206.086 501.500 229.293 517.802 L 252.500 534.104 252.760 490.052 L 253.021 446 290.004 446 L 326.986 446 327.243 515.681 L 327.500 585.363 349 600.637 C 360.825 609.037, 370.999 615.931, 371.608 615.955 C 372.930 616.009, 374.386 244.755, 373.220 204.841 L 372.500 180.182 364.439 185.841 M 409 400.506 L 409 619.158 414.327 615.329 C 417.257 613.223, 428.485 604.975, 439.277 597 L 458.899 582.500 459.200 504 L 459.500 425.500 476.500 425.196 C 485.850 425.028, 495.750 425.170, 498.500 425.510 L 503.500 426.129 513.738 441.903 L 523.977 457.676 524.238 497.397 L 524.500 537.117 549.750 519.933 L 575 502.749 575 471.514 C 575 440.515, 574.983 440.254, 572.687 436.890 C 571.415 435.025, 566.291 427.830, 561.301 420.900 C 556.310 413.970, 551.031 406.493, 549.570 404.285 L 546.913 400.269 555.773 387.385 C 560.646 380.298, 566.927 371.125, 569.730 367 L 574.827 359.500 575.426 328.439 L 576.025 297.378 558.263 285.023 C 548.493 278.227, 537.402 270.454, 533.614 267.750 C 529.827 265.046, 526.115 262.598, 525.364 262.310 C 524.226 261.873, 524 268.450, 524 302.062 L 524 342.338 514.250 357.622 L 504.500 372.906 481.750 372.953 L 459 373 459 294.177 L 459 215.353 435.285 198.927 C 422.241 189.892, 410.991 182.355, 410.285 182.177 C 409.241 181.914, 409 222.933, 409 400.506 M 307 283.051 C 296.275 290.268, 279.738 301.381, 270.250 307.745 L 253 319.317 253 356.033 L 253 392.750 256.125 393.375 C 257.844 393.719, 274.283 394, 292.656 394 C 318.460 394, 326.172 393.716, 326.541 392.750 C 326.804 392.063, 326.902 364.147, 326.759 330.715 L 326.500 269.929 307 283.051" stroke="none" fill="#000000" fill-rule="evenodd"/></g></svg>